<svg xmlns="http://www.w3.org/2000/svg" viewBox="0 0 64 64"><defs/><g fill="#2F7ABF"><path d="M28.037 26.225l-1.197 6.011-.897 4.508a.795.795 0 00.939.936l4.506-.905 6.008-1.207-4.716-4.708-4.643-4.635z"/><path d="M28.037 26.225l-1.197 6.011-.897 4.508a.795.795 0 00.939.936l4.506-.905 6.008-1.207-4.716-4.708-4.643-4.635zM52.632 1.396l-6.004 6.015 9.548 9.531 6.004-6.015a.798.798 0 00.233-.564.79.79 0 00-.234-.563l-8.421-8.406a.8.8 0 00-.564-.233.807.807 0 00-.562.235zM28.638 25.434L45.932 8.111l2.706 2.702-17.294 17.323zM35.48 32.264l17.294-17.323 2.706 2.702-17.293 17.323z"/></g><g fill="#2F7ABF"><path d="M44.168 43.402h-33.46a1.173 1.173 0 110-2.346h33.461a1.173 1.173 0 11-.001 2.346zM26.142 25.734H10.708a1.173 1.173 0 100 2.346h14.967l.467-2.346zM24.617 33.395H10.708a1.173 1.173 0 100 2.346H24.15l.467-2.346z"/></g><path fill="#3C4752" d="M49.749 26.153v21.083a2.6 2.6 0 01-2.597 2.597H24.466l-3.249 3.249-5.332 5.332a.46.46 0 01-.545.107c-.203-.086-.31-.235-.31-.459V49.833H7.721a2.584 2.584 0 01-1.72-.663 2.569 2.569 0 01-.866-1.934V20.938c0-.663.246-1.272.663-1.731a2.581 2.581 0 011.922-.855h25.23l3.238-3.249H6.834a5.25 5.25 0 00-5.247 5.247v27.484a5.25 5.25 0 005.247 5.247h3.922v4.98a4.757 4.757 0 002.949 4.413 4.765 4.765 0 005.204-1.037l8.356-8.356H48.05a5.256 5.256 0 005.247-5.247v-25.24l-3.548 3.559z"/></svg>