<?xml version="1.0" encoding="UTF-8" standalone="no"?>
<!-- Created with Inkscape (http://www.inkscape.org/) -->

<svg
   xmlns:dc="http://purl.org/dc/elements/1.1/"
   xmlns:cc="http://creativecommons.org/ns#"
   xmlns:rdf="http://www.w3.org/1999/02/22-rdf-syntax-ns#"
   xmlns:svg="http://www.w3.org/2000/svg"
   xmlns="http://www.w3.org/2000/svg"
   xmlns:xlink="http://www.w3.org/1999/xlink"
   xmlns:sodipodi="http://sodipodi.sourceforge.net/DTD/sodipodi-0.dtd"
   xmlns:inkscape="http://www.inkscape.org/namespaces/inkscape"
   width="33.314899mm"
   height="8.969471mm"
   viewBox="0 0 33.3149 8.9694708"
   version="1.1"
   id="svg1480"
   inkscape:version="0.92.4 (5da689c313, 2019-01-14)"
   sodipodi:docname="garmin.svg">
  <defs
     id="defs1474">
    <path
       d="M 265.682,27.688 239.69,27.687 c -0.953,0 -1.771,-0.474 -2.247,-1.299 -0.476,-0.825 -0.476,-1.769 10e-4,-2.594 L 250.441,1.296 C 250.917,0.472 251.734,0 252.687,0 c 0.952,0 1.77,0.472 2.246,1.296 l 12.995,22.499 c 0.478,0.825 0.478,1.77 10e-4,2.595 -0.476,0.824 -1.294,1.298 -2.247,1.298 z"
       id="XMLID_1_"
       inkscape:connector-curvature="0" />
  </defs>
  <sodipodi:namedview
     id="base"
     pagecolor="#ffffff"
     bordercolor="#666666"
     borderopacity="1.0"
     inkscape:pageopacity="0.0"
     inkscape:pageshadow="2"
     inkscape:zoom="3.959798"
     inkscape:cx="191.80016"
     inkscape:cy="-15.001592"
     inkscape:document-units="mm"
     inkscape:current-layer="layer1"
     showgrid="false"
     fit-margin-top="0"
     fit-margin-left="0"
     fit-margin-right="0"
     fit-margin-bottom="0"
     inkscape:window-width="2560"
     inkscape:window-height="1377"
     inkscape:window-x="1912"
     inkscape:window-y="-8"
     inkscape:window-maximized="1" />
  <metadata
     id="metadata1477">
    <rdf:RDF>
      <cc:Work
         rdf:about="">
        <dc:format>image/svg+xml</dc:format>
        <dc:type
           rdf:resource="http://purl.org/dc/dcmitype/StillImage" />
        <dc:title></dc:title>
      </cc:Work>
    </rdf:RDF>
  </metadata>
  <g
     inkscape:label="Layer 1"
     inkscape:groupmode="layer"
     id="layer1"
     transform="translate(-36.590458,-37.237865)">
    <g
       style="overflow:visible"
       id="g2077"
       transform="matrix(0.11522663,0,0,0.11522663,36.590458,37.237865)">
      <g
         id="g2051">
	<g
   id="g2027">
		<path
   id="path2025"
   d="m 75.2,39.37 c -0.479,-0.964 -1.754,-1.751 -2.833,-1.751 h -2.193 c -1.077,0 -2.337,0.796 -2.803,1.767 L 49.985,75.708 c -0.483,0.961 0.042,1.649 1.121,1.649 h 4.018 c 1.586,0 2.313,-0.721 2.742,-1.605 0.431,-0.884 1.389,-2.805 1.572,-3.197 0.248,-0.53 1.012,-0.855 2.089,-0.854 l 18.707,0.01 c 1.078,0.002 1.771,0.207 2.09,0.844 0.208,0.415 1.164,2.143 1.634,3.086 0.474,0.943 1.27,1.716 2.815,1.716 h 5.83 c 1.078,0 1.55,-0.818 1.162,-1.578 C 93.375,75.017 75.2,39.37 75.2,39.37 Z M 64.216,66.091 c -1.077,0 -1.584,-0.802 -1.131,-1.777 l 6.851,-14.677 c 0.456,-0.978 1.193,-0.971 1.638,0.006 l 6.67,14.677 c 0.445,0.979 -0.072,1.781 -1.148,1.781 z m 145.327,-26.44 c 0,0.351 0,35.328 0,36.034 0,0.992 0.881,1.672 1.96,1.672 h 4.751 c 1.077,0 1.959,-0.688 1.959,-1.766 V 39.578 c 0,-1.079 -0.696,-1.958 -1.773,-1.958 h -4.937 c -1.079,-10e-4 -1.96,0.662 -1.96,2.031 z m -79.616,22.57 c -0.619,-0.882 -0.279,-1.856 0.752,-2.164 0,0 4.105,-1.229 6.07,-2.991 1.966,-1.767 2.954,-4.318 2.954,-7.643 0,-2.174 -0.38,-4.002 -1.137,-5.489 -0.757,-1.483 -1.842,-2.697 -3.254,-3.626 -1.412,-0.934 -3.102,-1.619 -5.07,-2.048 -1.971,-0.427 -4.63,-0.552 -4.63,-0.552 -1.078,-0.049 -2.839,-0.089 -3.915,-0.089 h -19.73 c -1.076,0 -1.958,0.879 -1.958,1.958 v 36.014 c 0,1.079 0.881,1.766 1.958,1.766 h 4.669 c 1.078,0 1.959,-0.688 1.959,-1.766 0,0 0.003,-14.324 0.012,-14.324 0.008,0 0.013,-0.008 0.013,-0.018 0,-0.012 8.851,-0.022 8.851,-0.022 1.076,0 2.466,0.72 3.089,1.602 l 9.188,12.937 c 0.854,1.146 1.666,1.591 2.743,1.591 h 6.103 c 1.078,0 1.247,-1.016 0.874,-1.544 -0.369,-0.525 -9.541,-13.592 -9.541,-13.592 z m -3.715,-7.314 c -1.209,0.278 -2.57,0.334 -2.57,0.334 -1.076,0.047 -2.837,0.085 -3.915,0.085 h -9.146 c -1.078,0 -1.959,-0.882 -1.959,-1.959 V 46.07 c 0,-1.078 0.881,-1.959 1.959,-1.959 h 9.146 c 1.078,0 2.839,0.039 3.915,0.084 0,0 1.361,0.054 2.57,0.333 1.209,0.279 2.168,0.668 2.87,1.171 0.705,0.506 1.208,1.099 1.512,1.781 0.3,0.682 0.453,1.425 0.453,2.236 0,0.807 -0.153,1.554 -0.453,2.235 -0.304,0.682 -0.807,1.275 -1.512,1.781 -0.702,0.506 -1.661,0.9 -2.87,1.175 z M 267.875,37.619 c -1.077,0 -1.948,0.71 -1.948,1.748 0,0.498 0.012,23.036 0.012,23.036 0,1.08 -0.61,1.325 -1.358,0.549 L 241.515,39.027 c -0.749,-0.776 -1.845,-1.408 -3.321,-1.408 h -4.338 c -1.364,0 -1.961,0.728 -1.961,1.465 0,0.734 0,36.099 0,36.837 0,0.735 0.7,1.436 1.779,1.436 h 4.345 c 1.075,0 1.829,-0.586 1.829,-1.578 0,-0.498 0.022,-24.268 0.022,-24.268 0,-1.077 0.609,-1.323 1.355,-0.545 l 24.051,25.003 c 0.764,0.765 1.692,1.388 3.343,1.388 h 3.264 c 1.079,0 1.96,-0.881 1.96,-1.959 v -35.82 c 0,-1.079 -0.881,-1.958 -1.96,-1.958 h -4.008 z m -94.043,22.462 c -0.523,0.941 -1.384,0.938 -1.9,-0.005 L 160.657,39.37 c -0.479,-0.961 -1.462,-1.751 -2.832,-1.751 h -6.115 c -1.078,0 -1.961,0.879 -1.961,1.958 v 35.968 c 0,1.076 0.708,1.812 1.961,1.812 h 3.801 c 1.079,0 1.856,-0.68 1.856,-1.719 0,-0.498 0.016,-26.16 0.057,-26.16 0.042,0 14.073,26.153 14.073,26.153 0.508,0.949 1.755,0.953 2.273,0.008 0,0 14.146,-26.086 14.188,-26.086 0.044,0 0.028,25.336 0.028,26.085 0,1.04 0.831,1.719 1.91,1.719 h 4.378 c 1.079,0 1.958,-0.537 1.958,-1.959 v -35.82 c 0,-1.079 -0.879,-1.958 -1.958,-1.958 h -5.862 c -1.496,0 -2.396,0.763 -2.931,1.7 z"
   inkscape:connector-curvature="0" />

	</g>

	<g
   id="g2031">
		<path
   id="path2029"
   d="m 0,57.453 c 0,19.405 19.848,20.389 23.828,20.389 13.171,0 18.737,-3.559 18.968,-3.713 0.824,-0.466 1.827,-1.406 1.827,-3.167 V 57.568 c 0,-1.234 -1.005,-2.239 -2.24,-2.239 H 25.836 c -1.237,0 -2.049,1.005 -2.049,2.239 v 1.387 c 0,1.236 0.812,2.244 2.049,2.244 h 9.571 c 0.924,0 1.675,0.75 1.675,1.674 0,0 -0.009,5.871 -0.009,6.243 C 35.182,69.888 26.57,72.404 19.65,70.754 9.612,68.353 8.83,60.072 8.83,57.591 c 0,-2.082 0.624,-12.512 12.952,-13.567 9.979,-0.854 16.55,3.175 16.615,3.214 1.173,0.608 2.387,0.175 3.041,-1.067 0.003,-0.01 1.245,-2.523 1.245,-2.523 C 43.2,42.614 43.026,41.542 41.764,40.686 41.68,40.638 34.685,36.845 23.83,36.845 0.668,36.846 0,55.344 0,57.453 Z"
   inkscape:connector-curvature="0" />

	</g>

	<g
   id="g2037">
		<path
   id="path2033"
   d="m 280.067,72.41 h -1.705 v -0.615 h 4.15 v 0.615 h -1.713 v 4.989 h -0.732 z"
   inkscape:connector-curvature="0" />

		<path
   id="path2035"
   d="m 288.275,74.938 c -0.042,-0.782 -0.092,-1.73 -0.092,-2.42 h -0.017 c -0.199,0.648 -0.424,1.355 -0.706,2.129 l -0.99,2.718 h -0.549 l -0.915,-2.668 c -0.266,-0.798 -0.481,-1.514 -0.64,-2.179 h -0.017 c -0.017,0.698 -0.059,1.63 -0.108,2.478 l -0.149,2.402 h -0.69 l 0.391,-5.604 h 0.923 l 0.957,2.711 c 0.232,0.69 0.415,1.306 0.565,1.887 h 0.017 c 0.149,-0.565 0.349,-1.18 0.599,-1.887 l 0.998,-2.711 h 0.923 l 0.35,5.604 h -0.716 z"
   inkscape:connector-curvature="0" />

	</g>

	<g
   id="g2049">
		<g
   id="g2047">
			<defs
   id="defs2040">
				<path
   d="M 265.682,27.688 239.69,27.687 c -0.953,0 -1.771,-0.474 -2.247,-1.299 -0.476,-0.825 -0.476,-1.769 10e-4,-2.594 L 250.441,1.296 C 250.917,0.472 251.734,0 252.687,0 c 0.952,0 1.77,0.472 2.246,1.296 l 12.995,22.499 c 0.478,0.825 0.478,1.77 10e-4,2.595 -0.476,0.824 -1.294,1.298 -2.247,1.298 z"
   id="path2068"
   inkscape:connector-curvature="0" />

			</defs>

			<use
   id="use2042"
   xlink:href="#XMLID_1_"
   style="clip-rule:evenodd;fill:#007cc2;fill-rule:evenodd"
   x="0"
   y="0"
   width="100%"
   height="100%" />

			<clipPath
   id="XMLID_3_">
				<use
   id="use2044"
   xlink:href="#XMLID_1_"
   x="0"
   y="0"
   width="100%"
   height="100%" />

			</clipPath>

		</g>

	</g>

</g>
    </g>
  </g>
</svg>
