<?xml version="1.0" encoding="UTF-8" standalone="no"?>
<!-- Created with Inkscape (http://www.inkscape.org/) -->

<svg
   xmlns:dc="http://purl.org/dc/elements/1.1/"
   xmlns:cc="http://creativecommons.org/ns#"
   xmlns:rdf="http://www.w3.org/1999/02/22-rdf-syntax-ns#"
   xmlns:svg="http://www.w3.org/2000/svg"
   xmlns="http://www.w3.org/2000/svg"
   xmlns:sodipodi="http://sodipodi.sourceforge.net/DTD/sodipodi-0.dtd"
   xmlns:inkscape="http://www.inkscape.org/namespaces/inkscape"
   width="13.033375mm"
   height="12.711547mm"
   viewBox="0 0 13.033375 12.711547"
   version="1.1"
   id="svg8"
   inkscape:version="0.92.4 (5da689c313, 2019-01-14)"
   sodipodi:docname="github.svg">
  <defs
     id="defs2" />
  <sodipodi:namedview
     id="base"
     pagecolor="#ffffff"
     bordercolor="#666666"
     borderopacity="1.0"
     inkscape:pageopacity="0.0"
     inkscape:pageshadow="2"
     inkscape:zoom="0.7"
     inkscape:cx="-366.01272"
     inkscape:cy="-171.33847"
     inkscape:document-units="mm"
     inkscape:current-layer="g3755"
     showgrid="false"
     inkscape:window-width="1920"
     inkscape:window-height="1017"
     inkscape:window-x="1912"
     inkscape:window-y="-8"
     inkscape:window-maximized="1" />
  <metadata
     id="metadata5">
    <rdf:RDF>
      <cc:Work
         rdf:about="">
        <dc:format>image/svg+xml</dc:format>
        <dc:type
           rdf:resource="http://purl.org/dc/dcmitype/StillImage" />
        <dc:title></dc:title>
      </cc:Work>
    </rdf:RDF>
  </metadata>
  <g
     inkscape:label="Layer 1"
     inkscape:groupmode="layer"
     id="layer1"
     transform="translate(-66.810691,-131.13827)">
    <g
       id="g3755"
       transform="matrix(0.26458333,0,0,0.26458333,373.5395,-308.84158)">
      <path
         id="path3743"
         d="m -1134.66,1662.916 c -13.6,0 -24.63,11.027 -24.63,24.63 0,10.882 7.057,20.115 16.844,23.371 1.23,0.228 1.683,-0.534 1.683,-1.184 0,-0.587 -0.023,-2.528 -0.034,-4.586 -6.852,1.49 -8.298,-2.906 -8.298,-2.906 -1.12,-2.847 -2.734,-3.604 -2.734,-3.604 -2.235,-1.529 0.168,-1.497 0.168,-1.497 2.473,0.173 3.776,2.538 3.776,2.538 2.196,3.765 5.761,2.677 7.167,2.047 0.221,-1.591 0.86,-2.678 1.564,-3.293 -5.47,-0.623 -11.222,-2.735 -11.222,-12.172 0,-2.69 0.962,-4.886 2.538,-6.611 -0.256,-0.62 -1.099,-3.126 0.239,-6.519 0,0 2.068,-0.661 6.774,2.525 1.965,-0.545 4.072,-0.82 6.165,-0.829 2.093,0.01 4.202,0.284 6.17,0.83 4.701,-3.187 6.767,-2.526 6.767,-2.526 1.34,3.393 0.497,5.898 0.241,6.519 1.58,1.725 2.535,3.922 2.535,6.61 0,9.46 -5.762,11.544 -11.246,12.153 0.883,0.765 1.67,2.264 1.67,4.561 0,3.296 -0.028,5.948 -0.028,6.76 0,0.655 0.443,1.423 1.691,1.181 9.782,-3.26 16.83,-12.49 16.83,-23.368 0,-13.603 -11.027,-24.63 -24.63,-24.63 z"
         inkscape:connector-curvature="0"
         style="clip-rule:evenodd;fill:#f9f9f9;fill-rule:evenodd"
         inkscape:export-filename="C:\Users\GordonBeeming\Downloads\_days\202005\iconfinder_x-01_2315651.png"
         inkscape:export-xdpi="172.24901"
         inkscape:export-ydpi="172.24901" />
      <path
         id="path3745"
         d="m -1149.961,1698.28 c -0.054,0.122 -0.247,0.159 -0.422,0.075 -0.18,-0.08 -0.28,-0.248 -0.221,-0.37 0.053,-0.126 0.245,-0.161 0.424,-0.077 0.179,0.08 0.28,0.249 0.219,0.371 z m -0.303,-0.225 m 1.301,1.337 c -0.118,0.109 -0.348,0.058 -0.504,-0.114 -0.16,-0.172 -0.19,-0.401 -0.071,-0.512 0.12,-0.108 0.343,-0.057 0.505,0.114 0.16,0.174 0.192,0.402 0.07,0.512 z m -0.235,-0.252 m 1.206,1.67 c -0.151,0.106 -0.398,0.01 -0.55,-0.212 -0.152,-0.219 -0.152,-0.482 0,-0.587 0.152,-0.105 0.396,-0.01 0.55,0.207 0.15,0.223 0.15,0.485 0,0.592 z m 0,0 m 1.33,1.371 c -0.135,0.15 -0.423,0.109 -0.633,-0.094 -0.215,-0.199 -0.275,-0.48 -0.14,-0.63 0.137,-0.149 0.426,-0.107 0.638,0.095 0.214,0.198 0.279,0.482 0.135,0.63 z m 0,0 m 1.836,0.796 c -0.06,0.193 -0.337,0.28 -0.616,0.198 -0.279,-0.084 -0.46,-0.31 -0.405,-0.505 0.058,-0.194 0.337,-0.285 0.617,-0.198 0.279,0.084 0.461,0.309 0.404,0.505 z m 0,0 m 2.016,0.147 c 0.01,0.203 -0.23,0.372 -0.523,0.375 -0.295,0.01 -0.533,-0.157 -0.536,-0.357 0,-0.205 0.23,-0.372 0.525,-0.377 0.293,-0.01 0.533,0.158 0.533,0.36 z m 0,0 m 1.875,-0.319 c 0.035,0.198 -0.169,0.402 -0.46,0.456 -0.285,0.053 -0.55,-0.07 -0.586,-0.267 -0.036,-0.203 0.171,-0.406 0.457,-0.459 0.291,-0.05 0.552,0.069 0.589,0.27 z m 0,0"
         inkscape:connector-curvature="0"
         style="fill:#f9f9f9"
         inkscape:export-filename="C:\Users\GordonBeeming\Downloads\_days\202005\iconfinder_x-01_2315651.png"
         inkscape:export-xdpi="172.24901"
         inkscape:export-ydpi="172.24901" />
      <path
         style="fill:#f9f9f9;stroke-width:0.12626907"
         d="m 268.87523,543.40888 c -1.24743,-0.42395 -3.79623,-1.70232 -5.09552,-2.55569 -1.72175,-1.13085 -2.92657,-2.13358 -4.3933,-3.65639 -7.96495,-8.26949 -9.04444,-21.05241 -2.58905,-30.65848 4.882,-7.26477 13.53545,-11.46333 22.15626,-10.75 4.56747,0.37793 8.32422,1.69246 12.0187,4.20548 3.49565,2.37778 6.15539,5.42952 8.07899,9.26972 1.56499,3.12427 2.37701,6.07086 2.57802,9.35494 0.4327,7.06944 -1.94553,13.59639 -6.79518,18.64903 -2.09151,2.17905 -4.35671,3.81727 -7.10008,5.13487 -2.76864,1.32975 -3.60401,1.49106 -4.14695,0.80082 -0.2425,-0.30829 -0.25418,-0.5078 -0.25627,-4.37816 -0.003,-4.98511 -0.13976,-5.80452 -1.20977,-7.23237 l -0.29924,-0.39931 0.91344,-0.14676 c 3.69586,-0.59379 6.31509,-1.91514 7.88761,-3.97912 1.19581,-1.56954 1.90995,-3.58804 2.189,-6.18719 0.34269,-3.19184 -0.29617,-5.84434 -1.89472,-7.86665 l -0.5198,-0.6576 0.18572,-0.66237 c 0.43078,-1.5364 0.36286,-3.29775 -0.19707,-5.1106 l -0.2446,-0.79193 -0.72097,0.002 c -1.29691,0.003 -3.0248,0.62874 -5.00968,1.81508 l -1.14087,0.68189 -1.45209,-0.3014 c -2.87757,-0.59725 -6.46635,-0.59725 -9.34391,0 l -1.4521,0.3014 -1.14086,-0.68189 c -1.98488,-1.18634 -3.71277,-1.81238 -5.00968,-1.81508 l -0.72097,-0.002 -0.25946,0.84003 c -0.55788,1.8062 -0.62218,3.47084 -0.19631,5.08204 l 0.18024,0.68191 -0.4446,0.51765 c -0.55866,0.65044 -1.49958,2.55084 -1.75673,3.54811 -0.28542,1.10689 -0.36859,3.08406 -0.19316,4.59183 0.57799,4.96776 2.87089,7.94474 7.20556,9.35532 0.45141,0.1469 1.48083,0.38911 2.28759,0.53825 l 1.46685,0.27116 -0.41363,0.57667 c -0.4052,0.56491 -0.9417,1.92005 -0.9417,2.37864 0,0.50697 -2.3033,1.00321 -3.5918,0.77385 -1.44923,-0.25798 -2.31568,-0.85774 -3.32397,-2.30086 -1.36388,-1.95207 -2.54704,-2.77047 -4.03353,-2.79002 -1.46793,-0.0193 -1.54444,0.6295 -0.18324,1.55388 1.06612,0.72398 1.693,1.51368 2.47944,3.12339 0.81189,1.6618 1.4445,2.36027 2.71211,2.99443 1.39007,0.69542 3.27673,0.87653 5.34121,0.51273 l 0.47351,-0.0834 v 2.47173 c 0,2.38626 -0.01,2.48256 -0.28411,2.78504 -0.40144,0.44272 -0.90938,0.49788 -1.79933,0.19542 z"
         id="path3757"
         inkscape:connector-curvature="0"
         transform="translate(-1411.8029,1167.2753)"
         inkscape:export-filename="C:\Users\GordonBeeming\Downloads\_days\202005\iconfinder_x-01_2315651.png"
         inkscape:export-xdpi="172.24901"
         inkscape:export-ydpi="172.24901" />
      <path
         inkscape:export-ydpi="172.24901"
         inkscape:export-xdpi="172.24901"
         inkscape:export-filename="C:\Users\GordonBeeming\Downloads\_days\202005\iconfinder_x-01_2315651.png"
         style="clip-rule:evenodd;fill:#f9f9f9;fill-rule:evenodd"
         inkscape:connector-curvature="0"
         d="m -1134.66,1662.916 c -13.6,0 -24.63,11.027 -24.63,24.63 0,10.882 7.057,20.115 16.844,23.371 1.23,0.228 1.683,-0.534 1.683,-1.184 0,-0.587 -0.023,-2.528 -0.034,-4.586 -6.852,1.49 -8.298,-2.906 -8.298,-2.906 -1.12,-2.847 -2.734,-3.604 -2.734,-3.604 -2.235,-1.529 0.168,-1.497 0.168,-1.497 2.473,0.173 3.776,2.538 3.776,2.538 2.196,3.765 5.761,2.677 7.167,2.047 0.221,-1.591 0.86,-2.678 1.564,-3.293 -5.47,-0.623 -11.222,-2.735 -11.222,-12.172 0,-2.69 0.962,-4.886 2.538,-6.611 -0.256,-0.62 -1.099,-3.126 0.239,-6.519 0,0 2.068,-0.661 6.774,2.525 1.965,-0.545 4.072,-0.82 6.165,-0.829 2.093,0.01 4.202,0.284 6.17,0.83 4.701,-3.187 6.767,-2.526 6.767,-2.526 1.34,3.393 0.497,5.898 0.241,6.519 1.58,1.725 2.535,3.922 2.535,6.61 0,9.46 -5.762,11.544 -11.246,12.153 0.883,0.765 1.67,2.264 1.67,4.561 0,3.296 -0.028,5.948 -0.028,6.76 0,0.655 0.443,1.423 1.691,1.181 9.782,-3.26 16.83,-12.49 16.83,-23.368 0,-13.603 -11.027,-24.63 -24.63,-24.63 z"
         id="path3788" />
      <path
         inkscape:export-ydpi="172.24901"
         inkscape:export-xdpi="172.24901"
         inkscape:export-filename="C:\Users\GordonBeeming\Downloads\_days\202005\iconfinder_x-01_2315651.png"
         style="fill:#f9f9f9"
         inkscape:connector-curvature="0"
         d="m -1149.961,1698.28 c -0.054,0.122 -0.247,0.159 -0.422,0.075 -0.18,-0.08 -0.28,-0.248 -0.221,-0.37 0.053,-0.126 0.245,-0.161 0.424,-0.077 0.179,0.08 0.28,0.249 0.219,0.371 z m -0.303,-0.225 m 1.301,1.337 c -0.118,0.109 -0.348,0.058 -0.504,-0.114 -0.16,-0.172 -0.19,-0.401 -0.071,-0.512 0.12,-0.108 0.343,-0.057 0.505,0.114 0.16,0.174 0.192,0.402 0.07,0.512 z m -0.235,-0.252 m 1.206,1.67 c -0.151,0.106 -0.398,0.01 -0.55,-0.212 -0.152,-0.219 -0.152,-0.482 0,-0.587 0.152,-0.105 0.396,-0.01 0.55,0.207 0.15,0.223 0.15,0.485 0,0.592 z m 0,0 m 1.33,1.371 c -0.135,0.15 -0.423,0.109 -0.633,-0.094 -0.215,-0.199 -0.275,-0.48 -0.14,-0.63 0.137,-0.149 0.426,-0.107 0.638,0.095 0.214,0.198 0.279,0.482 0.135,0.63 z m 0,0 m 1.836,0.796 c -0.06,0.193 -0.337,0.28 -0.616,0.198 -0.279,-0.084 -0.46,-0.31 -0.405,-0.505 0.058,-0.194 0.337,-0.285 0.617,-0.198 0.279,0.084 0.461,0.309 0.404,0.505 z m 0,0 m 2.016,0.147 c 0.01,0.203 -0.23,0.372 -0.523,0.375 -0.295,0.01 -0.533,-0.157 -0.536,-0.357 0,-0.205 0.23,-0.372 0.525,-0.377 0.293,-0.01 0.533,0.158 0.533,0.36 z m 0,0 m 1.875,-0.319 c 0.035,0.198 -0.169,0.402 -0.46,0.456 -0.285,0.053 -0.55,-0.07 -0.586,-0.267 -0.036,-0.203 0.171,-0.406 0.457,-0.459 0.291,-0.05 0.552,0.069 0.589,0.27 z m 0,0"
         id="path3790" />
      <path
         inkscape:export-ydpi="172.24901"
         inkscape:export-xdpi="172.24901"
         inkscape:export-filename="C:\Users\GordonBeeming\Downloads\_days\202005\iconfinder_x-01_2315651.png"
         transform="translate(-1411.8029,1167.2753)"
         inkscape:connector-curvature="0"
         id="path3792"
         d="m 268.87523,543.40888 c -1.24743,-0.42395 -3.79623,-1.70232 -5.09552,-2.55569 -1.72175,-1.13085 -2.92657,-2.13358 -4.3933,-3.65639 -7.96495,-8.26949 -9.04444,-21.05241 -2.58905,-30.65848 4.882,-7.26477 13.53545,-11.46333 22.15626,-10.75 4.56747,0.37793 8.32422,1.69246 12.0187,4.20548 3.49565,2.37778 6.15539,5.42952 8.07899,9.26972 1.56499,3.12427 2.37701,6.07086 2.57802,9.35494 0.4327,7.06944 -1.94553,13.59639 -6.79518,18.64903 -2.09151,2.17905 -4.35671,3.81727 -7.10008,5.13487 -2.76864,1.32975 -3.60401,1.49106 -4.14695,0.80082 -0.2425,-0.30829 -0.25418,-0.5078 -0.25627,-4.37816 -0.003,-4.98511 -0.13976,-5.80452 -1.20977,-7.23237 l -0.29924,-0.39931 0.91344,-0.14676 c 3.69586,-0.59379 6.31509,-1.91514 7.88761,-3.97912 1.19581,-1.56954 1.90995,-3.58804 2.189,-6.18719 0.34269,-3.19184 -0.29617,-5.84434 -1.89472,-7.86665 l -0.5198,-0.6576 0.18572,-0.66237 c 0.43078,-1.5364 0.36286,-3.29775 -0.19707,-5.1106 l -0.2446,-0.79193 -0.72097,0.002 c -1.29691,0.003 -3.0248,0.62874 -5.00968,1.81508 l -1.14087,0.68189 -1.45209,-0.3014 c -2.87757,-0.59725 -6.46635,-0.59725 -9.34391,0 l -1.4521,0.3014 -1.14086,-0.68189 c -1.98488,-1.18634 -3.71277,-1.81238 -5.00968,-1.81508 l -0.72097,-0.002 -0.25946,0.84003 c -0.55788,1.8062 -0.62218,3.47084 -0.19631,5.08204 l 0.18024,0.68191 -0.4446,0.51765 c -0.55866,0.65044 -1.49958,2.55084 -1.75673,3.54811 -0.28542,1.10689 -0.36859,3.08406 -0.19316,4.59183 0.57799,4.96776 2.87089,7.94474 7.20556,9.35532 0.45141,0.1469 1.48083,0.38911 2.28759,0.53825 l 1.46685,0.27116 -0.41363,0.57667 c -0.4052,0.56491 -0.9417,1.92005 -0.9417,2.37864 0,0.50697 -2.3033,1.00321 -3.5918,0.77385 -1.44923,-0.25798 -2.31568,-0.85774 -3.32397,-2.30086 -1.36388,-1.95207 -2.54704,-2.77047 -4.03353,-2.79002 -1.46793,-0.0193 -1.54444,0.6295 -0.18324,1.55388 1.06612,0.72398 1.693,1.51368 2.47944,3.12339 0.81189,1.6618 1.4445,2.36027 2.71211,2.99443 1.39007,0.69542 3.27673,0.87653 5.34121,0.51273 l 0.47351,-0.0834 v 2.47173 c 0,2.38626 -0.01,2.48256 -0.28411,2.78504 -0.40144,0.44272 -0.90938,0.49788 -1.79933,0.19542 z"
         style="fill:#f9f9f9;stroke-width:0.12626907" />
    </g>
  </g>
</svg>
