<svg xmlns="http://www.w3.org/2000/svg" viewBox="0 0 512 512"><defs/><path fill="#ed1c40" d="M112.363 394.011c.96 4.97-2.004 9.678-6.974 10.724-4.708.958-9.502-2.006-10.46-6.975-.959-4.707 2.005-9.677 6.713-10.724 4.706-1.045 9.674 2.006 10.721 6.975zM237.113 456.255c-5.493 4.012-6.974 11.682-3.226 17.436 4.01 5.753 11.682 7.235 17.435 3.226 5.493-4.01 6.975-11.681 2.965-17.436-3.661-5.665-11.421-7.236-17.174-3.226zM162.142 53.238c5.492-1.22 8.979-6.712 7.758-12.205-.96-5.753-6.451-9.241-11.943-7.934-5.492 1.221-8.979 6.712-7.934 12.205 1.221 5.754 6.626 9.24 12.119 7.934zM56.047 230.119c-8.719-6.016-20.661-3.749-26.677 5.23-6.015 8.719-3.748 20.922 4.97 26.939 8.717 6.188 20.661 4.009 26.675-4.971 6.017-9.065 3.749-21.008-4.968-27.198zM293.167 81.134c9.241-5.492 11.943-17.436 6.711-26.415-5.491-9.24-17.172-12.205-26.151-6.713-8.979 5.493-11.943 17.436-6.448 26.676 5.228 8.98 16.908 11.944 25.888 6.452zM126.573 131.697c6.712-4.708 8.195-13.949 3.748-20.661-4.446-6.713-13.686-8.195-20.138-3.749-6.712 4.708-8.194 13.949-3.748 20.661 4.446 6.8 13.599 8.281 20.138 3.749zM451.13 267.691c-6.448 1.482-10.723 7.934-9.239 14.734 1.221 6.45 7.757 10.722 14.209 9.239 6.452-1.222 10.723-7.758 9.242-14.471-1.309-6.447-7.76-10.721-14.212-9.502zM485.739 218.175c-.958-4.968-5.752-7.933-10.461-6.973-4.97.959-7.933 6.014-6.974 10.984.96 4.708 5.755 7.933 10.723 6.975 4.709-1.308 7.934-6.016 6.712-10.986zM415.737 153.926c-7.496 5.23-9.24 15.431-4.272 22.929 4.97 7.496 15.169 9.241 22.665 4.272 7.237-5.231 8.981-15.431 4.013-22.928-4.969-7.585-15.171-9.504-22.406-4.273zM410.245 275.449c22.929 37.576 13.164 87.178-22.928 112.546-15.168 10.724-32.343 15.43-49.604 14.909-10.46 41.059-60.499 56.314-91.622 28.418-.959.786-2.267 1.482-3.226 2.528-34.085 23.624-80.464 15.169-104.089-19.44-8.456-12.466-12.727-26.675-13.163-40.885-57.014-9.501-78.459-81.947-35.83-121.787-24.672-40.886.523-93.627 46.552-100.166 21.881-57.71 93.802-85.084 142.621-47.25 58.756-19.44 118.821 25.631 114.114 88.136 35.831 10.985 46.03 58.322 17.175 82.991z"/><path fill="#fff" d="M349.222 340.222c-2.702-17.957-35.657-4.01-37.573-23.623-2.704-27.897 38.096-88.136 34.871-111.586-2.965-20.923-16.913-25.37-29.117-25.63-11.683-.262-14.734 1.745-18.656 4.011-2.527 1.482-5.754 4.272-10.2-.262-5.491-5.23-9.675-10.199-16.911-11.245-10.724-1.744-15.43 1.744-23.189 8.456-2.964 2.528-10.461 11.246-17.435 7.933-2.964-1.483-13.425-6.713-20.922-9.938-14.21-6.19-34.871 4.01-42.368 17.434-11.246 19.964-33.127 98.599-36.353 109.059-7.498 23.189 9.502 42.368 32.168 41.061 9.677-.522 15.954-4.011 22.143-15.169 3.487-6.451 36.353-93.889 38.882-98.161 1.743-2.964 7.757-6.975 12.727-4.446 4.969 2.702 6.015 8.195 5.23 13.164-.959 8.456-24.409 61.809-25.194 67.736-2.964 19.965 23.451 23.188 33.651 3.486 3.225-6.188 39.838-80.725 43.063-85.694 3.748-5.492 6.452-7.236 10.2-6.974 2.702 0 7.236.784 6.19 9.502-1.221 8.195-30.6 63.03-33.912 76.453-4.01 17.959 5.754 36.092 21.706 44.113 9.939 4.968 54.485 13.686 50.999-9.68z"/><path fill="#ed1c40" d="M354.19 420.688c-8.979 6.451-11.246 19.18-4.969 28.42 6.188 9.24 18.656 11.419 27.897 5.23 9.24-6.451 11.419-19.18 5.229-28.42-6.45-9.241-18.916-11.768-28.157-5.23z"/></svg>